<mxfile host="app.diagrams.net" agent="Mozilla/5.0 (X11; Linux x86_64) AppleWebKit/537.36 (KHTML, like Gecko) Chrome/125.0.0.0 Safari/537.36" version="24.7.12">
  <diagram name="Page-1" id="e56a1550-8fbb-45ad-956c-1786394a9013">
    <mxGraphModel dx="805" dy="1145" grid="1" gridSize="10" guides="1" tooltips="1" connect="1" arrows="1" fold="1" page="1" pageScale="1" pageWidth="1100" pageHeight="850" background="none" math="0" shadow="0">
      <root>
        <mxCell id="0" />
        <mxCell id="1" parent="0" />
        <mxCell id="HjesYyCfLnxQGXRYato6-8" style="edgeStyle=orthogonalEdgeStyle;rounded=0;orthogonalLoop=1;jettySize=auto;html=1;exitX=1;exitY=0.5;exitDx=0;exitDy=0;" edge="1" parent="1" source="2e49270ec7c68f3f-1">
          <mxGeometry relative="1" as="geometry">
            <mxPoint x="600" y="-100" as="targetPoint" />
          </mxGeometry>
        </mxCell>
        <mxCell id="HjesYyCfLnxQGXRYato6-11" style="edgeStyle=orthogonalEdgeStyle;rounded=0;orthogonalLoop=1;jettySize=auto;html=1;exitX=0.5;exitY=0;exitDx=0;exitDy=0;entryX=0.5;entryY=1;entryDx=0;entryDy=0;" edge="1" parent="1" source="2e49270ec7c68f3f-1" target="HjesYyCfLnxQGXRYato6-9">
          <mxGeometry relative="1" as="geometry" />
        </mxCell>
        <mxCell id="HjesYyCfLnxQGXRYato6-13" style="edgeStyle=orthogonalEdgeStyle;rounded=0;orthogonalLoop=1;jettySize=auto;html=1;exitX=0.5;exitY=1;exitDx=0;exitDy=0;entryX=0.5;entryY=0;entryDx=0;entryDy=0;" edge="1" parent="1" source="2e49270ec7c68f3f-1" target="HjesYyCfLnxQGXRYato6-12">
          <mxGeometry relative="1" as="geometry" />
        </mxCell>
        <mxCell id="2e49270ec7c68f3f-1" value="Auth" style="swimlane;html=1;fontStyle=0;childLayout=stackLayout;horizontal=1;startSize=120;fillColor=#e0e0e0;horizontalStack=0;resizeParent=1;resizeLast=0;collapsible=1;marginBottom=0;swimlaneFillColor=#ffffff;align=center;rounded=0;shadow=0;comic=0;labelBackgroundColor=none;strokeWidth=1;fontFamily=Verdana;fontSize=14" parent="1" vertex="1">
          <mxGeometry x="320" y="-160" width="160" height="120" as="geometry" />
        </mxCell>
        <mxCell id="HjesYyCfLnxQGXRYato6-17" style="edgeStyle=orthogonalEdgeStyle;rounded=0;orthogonalLoop=1;jettySize=auto;html=1;exitX=1;exitY=0.75;exitDx=0;exitDy=0;" edge="1" parent="1" source="2e49270ec7c68f3f-8" target="HjesYyCfLnxQGXRYato6-15">
          <mxGeometry relative="1" as="geometry" />
        </mxCell>
        <mxCell id="HjesYyCfLnxQGXRYato6-18" style="edgeStyle=orthogonalEdgeStyle;rounded=0;orthogonalLoop=1;jettySize=auto;html=1;exitX=1;exitY=0.25;exitDx=0;exitDy=0;entryX=0;entryY=0.5;entryDx=0;entryDy=0;" edge="1" parent="1" source="2e49270ec7c68f3f-8" target="HjesYyCfLnxQGXRYato6-14">
          <mxGeometry relative="1" as="geometry" />
        </mxCell>
        <mxCell id="2e49270ec7c68f3f-8" value="Sing in" style="swimlane;html=1;fontStyle=0;childLayout=stackLayout;horizontal=1;startSize=120;fillColor=#e0e0e0;horizontalStack=0;resizeParent=1;resizeLast=0;collapsible=1;marginBottom=0;swimlaneFillColor=#ffffff;align=center;rounded=0;shadow=0;comic=0;labelBackgroundColor=none;strokeWidth=1;fontFamily=Verdana;fontSize=14;swimlaneLine=1;" parent="1" vertex="1">
          <mxGeometry x="600" y="-160" width="160" height="120" as="geometry" />
        </mxCell>
        <mxCell id="HjesYyCfLnxQGXRYato6-26" style="edgeStyle=orthogonalEdgeStyle;rounded=0;orthogonalLoop=1;jettySize=auto;html=1;exitX=1;exitY=0.75;exitDx=0;exitDy=0;entryX=0;entryY=0.5;entryDx=0;entryDy=0;" edge="1" parent="1" source="2e49270ec7c68f3f-80" target="HjesYyCfLnxQGXRYato6-23">
          <mxGeometry relative="1" as="geometry" />
        </mxCell>
        <mxCell id="HjesYyCfLnxQGXRYato6-27" style="edgeStyle=orthogonalEdgeStyle;rounded=0;orthogonalLoop=1;jettySize=auto;html=1;exitX=1;exitY=1;exitDx=0;exitDy=0;entryX=0;entryY=0.5;entryDx=0;entryDy=0;" edge="1" parent="1" source="2e49270ec7c68f3f-80" target="HjesYyCfLnxQGXRYato6-24">
          <mxGeometry relative="1" as="geometry" />
        </mxCell>
        <mxCell id="HjesYyCfLnxQGXRYato6-28" style="edgeStyle=orthogonalEdgeStyle;rounded=0;orthogonalLoop=1;jettySize=auto;html=1;exitX=0.75;exitY=1;exitDx=0;exitDy=0;entryX=0;entryY=0.5;entryDx=0;entryDy=0;" edge="1" parent="1" source="2e49270ec7c68f3f-80" target="HjesYyCfLnxQGXRYato6-25">
          <mxGeometry relative="1" as="geometry" />
        </mxCell>
        <mxCell id="HjesYyCfLnxQGXRYato6-31" style="edgeStyle=orthogonalEdgeStyle;rounded=0;orthogonalLoop=1;jettySize=auto;html=1;entryX=0;entryY=0.5;entryDx=0;entryDy=0;" edge="1" parent="1" source="2e49270ec7c68f3f-80" target="HjesYyCfLnxQGXRYato6-21">
          <mxGeometry relative="1" as="geometry" />
        </mxCell>
        <mxCell id="HjesYyCfLnxQGXRYato6-32" style="edgeStyle=orthogonalEdgeStyle;rounded=0;orthogonalLoop=1;jettySize=auto;html=1;exitX=1;exitY=0.25;exitDx=0;exitDy=0;entryX=0;entryY=0.5;entryDx=0;entryDy=0;" edge="1" parent="1" source="2e49270ec7c68f3f-80" target="2e49270ec7c68f3f-1">
          <mxGeometry relative="1" as="geometry" />
        </mxCell>
        <mxCell id="HjesYyCfLnxQGXRYato6-33" style="edgeStyle=orthogonalEdgeStyle;rounded=0;orthogonalLoop=1;jettySize=auto;html=1;exitX=0.5;exitY=1;exitDx=0;exitDy=0;entryX=0;entryY=0.5;entryDx=0;entryDy=0;" edge="1" parent="1" source="2e49270ec7c68f3f-80" target="HjesYyCfLnxQGXRYato6-29">
          <mxGeometry relative="1" as="geometry" />
        </mxCell>
        <mxCell id="2e49270ec7c68f3f-80" value="Home" style="swimlane;html=1;fontStyle=0;childLayout=stackLayout;horizontal=1;startSize=100;fillColor=#e0e0e0;horizontalStack=0;resizeParent=1;resizeLast=0;collapsible=1;marginBottom=0;swimlaneFillColor=#ffffff;align=center;rounded=0;shadow=0;comic=0;labelBackgroundColor=none;strokeWidth=1;fontFamily=Verdana;fontSize=14" parent="1" vertex="1">
          <mxGeometry y="299.86" width="180" height="100" as="geometry" />
        </mxCell>
        <mxCell id="HjesYyCfLnxQGXRYato6-9" value="Log in" style="swimlane;html=1;fontStyle=0;childLayout=stackLayout;horizontal=1;startSize=120;fillColor=#e0e0e0;horizontalStack=0;resizeParent=1;resizeLast=0;collapsible=1;marginBottom=0;swimlaneFillColor=#ffffff;align=center;rounded=0;shadow=0;comic=0;labelBackgroundColor=none;strokeWidth=1;fontFamily=Verdana;fontSize=14;swimlaneLine=1;" vertex="1" parent="1">
          <mxGeometry x="590" y="-350" width="160" height="120" as="geometry" />
        </mxCell>
        <mxCell id="HjesYyCfLnxQGXRYato6-12" value="Forgot" style="swimlane;html=1;fontStyle=0;childLayout=stackLayout;horizontal=1;startSize=120;fillColor=#e0e0e0;horizontalStack=0;resizeParent=1;resizeLast=0;collapsible=1;marginBottom=0;swimlaneFillColor=#ffffff;align=center;rounded=0;shadow=0;comic=0;labelBackgroundColor=none;strokeWidth=1;fontFamily=Verdana;fontSize=14;swimlaneLine=1;" vertex="1" parent="1">
          <mxGeometry x="600" y="30" width="160" height="120" as="geometry" />
        </mxCell>
        <mxCell id="HjesYyCfLnxQGXRYato6-14" value="Sing in (student)" style="swimlane;html=1;fontStyle=0;childLayout=stackLayout;horizontal=1;startSize=120;fillColor=#e0e0e0;horizontalStack=0;resizeParent=1;resizeLast=0;collapsible=1;marginBottom=0;swimlaneFillColor=#ffffff;align=center;rounded=0;shadow=0;comic=0;labelBackgroundColor=none;strokeWidth=1;fontFamily=Verdana;fontSize=14;swimlaneLine=1;" vertex="1" parent="1">
          <mxGeometry x="830" y="-250" width="160" height="120" as="geometry" />
        </mxCell>
        <mxCell id="HjesYyCfLnxQGXRYato6-15" value="Sing in(lecturer)" style="swimlane;html=1;fontStyle=0;childLayout=stackLayout;horizontal=1;startSize=120;fillColor=#e0e0e0;horizontalStack=0;resizeParent=1;resizeLast=0;collapsible=1;marginBottom=0;swimlaneFillColor=#ffffff;align=center;rounded=0;shadow=0;comic=0;labelBackgroundColor=none;strokeWidth=1;fontFamily=Verdana;fontSize=14;swimlaneLine=1;" vertex="1" parent="1">
          <mxGeometry x="830" y="-90" width="160" height="120" as="geometry" />
        </mxCell>
        <mxCell id="HjesYyCfLnxQGXRYato6-21" value="Student" style="swimlane;html=1;fontStyle=0;childLayout=stackLayout;horizontal=1;startSize=120;fillColor=#e0e0e0;horizontalStack=0;resizeParent=1;resizeLast=0;collapsible=1;marginBottom=0;swimlaneFillColor=#ffffff;align=center;rounded=0;shadow=0;comic=0;labelBackgroundColor=none;strokeWidth=1;fontFamily=Verdana;fontSize=14" vertex="1" parent="1">
          <mxGeometry x="320" y="70" width="160" height="120" as="geometry" />
        </mxCell>
        <mxCell id="HjesYyCfLnxQGXRYato6-23" value="Lecturer" style="swimlane;html=1;fontStyle=0;childLayout=stackLayout;horizontal=1;startSize=120;fillColor=#e0e0e0;horizontalStack=0;resizeParent=1;resizeLast=0;collapsible=1;marginBottom=0;swimlaneFillColor=#ffffff;align=center;rounded=0;shadow=0;comic=0;labelBackgroundColor=none;strokeWidth=1;fontFamily=Verdana;fontSize=14" vertex="1" parent="1">
          <mxGeometry x="320" y="280" width="160" height="120" as="geometry" />
        </mxCell>
        <mxCell id="HjesYyCfLnxQGXRYato6-24" value="About" style="swimlane;html=1;fontStyle=0;childLayout=stackLayout;horizontal=1;startSize=120;fillColor=#e0e0e0;horizontalStack=0;resizeParent=1;resizeLast=0;collapsible=1;marginBottom=0;swimlaneFillColor=#ffffff;align=center;rounded=0;shadow=0;comic=0;labelBackgroundColor=none;strokeWidth=1;fontFamily=Verdana;fontSize=14" vertex="1" parent="1">
          <mxGeometry x="320" y="470" width="160" height="120" as="geometry" />
        </mxCell>
        <mxCell id="HjesYyCfLnxQGXRYato6-25" value="Feedback" style="swimlane;html=1;fontStyle=0;childLayout=stackLayout;horizontal=1;startSize=120;fillColor=#e0e0e0;horizontalStack=0;resizeParent=1;resizeLast=0;collapsible=1;marginBottom=0;swimlaneFillColor=#ffffff;align=center;rounded=0;shadow=0;comic=0;labelBackgroundColor=none;strokeWidth=1;fontFamily=Verdana;fontSize=14" vertex="1" parent="1">
          <mxGeometry x="320" y="660" width="160" height="120" as="geometry" />
        </mxCell>
        <mxCell id="HjesYyCfLnxQGXRYato6-29" value="Faculty" style="swimlane;html=1;fontStyle=0;childLayout=stackLayout;horizontal=1;startSize=120;fillColor=#e0e0e0;horizontalStack=0;resizeParent=1;resizeLast=0;collapsible=1;marginBottom=0;swimlaneFillColor=#ffffff;align=center;rounded=0;shadow=0;comic=0;labelBackgroundColor=none;strokeWidth=1;fontFamily=Verdana;fontSize=14" vertex="1" parent="1">
          <mxGeometry x="320" y="900.14" width="160" height="120" as="geometry" />
        </mxCell>
      </root>
    </mxGraphModel>
  </diagram>
</mxfile>
